<svg width="16" height="16" viewBox="0 0 16 16" fill="none" xmlns="http://www.w3.org/2000/svg">
<g id="all_inclusive" clipPath="url(#clip0_3679_3026)">
<path id="Vector" d="M11.7236 4.34814C10.8236 4.34814 9.97363 4.69814 9.36738 5.30439L4.97363 9.2044C4.57363 9.6044 4.04238 9.82315 3.47363 9.82315C2.30488 9.82315 1.35488 8.8794 1.35488 7.71064C1.35488 6.54189 2.30488 5.59814 3.47363 5.59814C4.04238 5.59814 4.57363 5.81689 4.99863 6.24189L5.70488 6.86689L6.64863 6.02939L5.86113 5.33564C5.22363 4.69814 4.37363 4.34814 3.47363 4.34814C1.61113 4.34814 0.0986328 5.86064 0.0986328 7.71064C0.0986328 9.56065 1.61113 11.0731 3.47363 11.0731C4.37363 11.0731 5.22363 10.7231 5.82988 10.1169L10.2236 6.21689C10.6236 5.81689 11.1549 5.59814 11.7236 5.59814C12.8924 5.59814 13.8424 6.54189 13.8424 7.71064C13.8424 8.8794 12.8924 9.82315 11.7236 9.82315C11.1611 9.82315 10.6236 9.6044 10.1986 9.1794L9.48613 8.54815L8.54238 9.38565L9.33613 10.0856C9.97363 10.7169 10.8174 11.0669 11.7236 11.0669C13.5861 11.0669 15.0986 9.56065 15.0986 7.70439C15.0986 5.84814 13.5861 4.34814 11.7236 4.34814Z" fill="white"/>
</g>
<defs>
<clipPath id="clip0_3679_3026">
<rect width="15" height="15" fill="white" transform="translate(0.0986328 0.210693)"/>
</clipPath>
</defs>
</svg>
