<svg width="31" height="31" viewBox="0 0 31 31" fill="none" xmlns="http://www.w3.org/2000/svg">
<g id="library_books">
<path id="Vector" d="M5.09863 7.88196H2.59863V25.382C2.59863 26.757 3.72363 27.882 5.09863 27.882H22.5986V25.382H5.09863V7.88196ZM25.0986 2.88196H10.0986C8.72363 2.88196 7.59863 4.00696 7.59863 5.38196V20.382C7.59863 21.757 8.72363 22.882 10.0986 22.882H25.0986C26.4736 22.882 27.5986 21.757 27.5986 20.382V5.38196C27.5986 4.00696 26.4736 2.88196 25.0986 2.88196ZM25.0986 20.382H10.0986V5.38196H25.0986V20.382ZM12.5986 11.632H22.5986V14.132H12.5986V11.632ZM12.5986 15.382H17.5986V17.882H12.5986V15.382ZM12.5986 7.88196H22.5986V10.382H12.5986V7.88196Z" fill="white"/>
</g>
</svg>
