<svg width="31" height="31" viewBox="0 0 31 31" fill="none" xmlns="http://www.w3.org/2000/svg">
<g id="attach_money">
<path id="Vector" d="M15.5861 14.007C12.7486 13.2695 11.8361 12.507 11.8361 11.3195C11.8361 9.95696 13.0986 9.00696 15.2111 9.00696C17.4361 9.00696 18.2611 10.0695 18.3361 11.632H21.0986C21.0111 9.48196 19.6986 7.50696 17.0861 6.86946V4.13196H13.3361V6.83196C10.9111 7.35696 8.96113 8.93196 8.96113 11.3445C8.96113 14.232 11.3486 15.6695 14.8361 16.507C17.9611 17.257 18.5861 18.357 18.5861 19.5195C18.5861 20.382 17.9736 21.757 15.2111 21.757C12.6361 21.757 11.6236 20.607 11.4861 19.132H8.73613C8.88613 21.8695 10.9361 23.407 13.3361 23.9195V26.632H17.0861V23.9445C19.5236 23.482 21.4611 22.0695 21.4611 19.507C21.4611 15.957 18.4236 14.7445 15.5861 14.007Z" fill="white"/>
</g>
</svg>
