<svg width="16" height="15" viewBox="0 0 16 15" fill="none" xmlns="http://www.w3.org/2000/svg">
<g id="auto_awesome" clipPath="url(#clip0_3679_3019)">
<g id="Vector">
<path d="M11.9736 5.62488L12.7549 3.90613L14.4736 3.12488L12.7549 2.34363L11.9736 0.624878L11.1924 2.34363L9.47363 3.12488L11.1924 3.90613L11.9736 5.62488Z" fill="white"/>
<path d="M11.9736 9.37488L11.1924 11.0936L9.47363 11.8749L11.1924 12.6561L11.9736 14.3749L12.7549 12.6561L14.4736 11.8749L12.7549 11.0936L11.9736 9.37488Z" fill="white"/>
<path d="M7.28613 5.93738L5.72363 2.49988L4.16113 5.93738L0.723633 7.49988L4.16113 9.06238L5.72363 12.4999L7.28613 9.06238L10.7236 7.49988L7.28613 5.93738ZM6.34238 8.11863L5.72363 9.48113L5.10488 8.11863L3.74238 7.49988L5.10488 6.88113L5.72363 5.51863L6.34238 6.88113L7.70488 7.49988L6.34238 8.11863Z" fill="white"/>
</g>
</g>
<defs>
<clipPath id="clip0_3679_3019">
<rect width="15" height="15" fill="white" transform="translate(0.0986328 -0.00012207)"/>
</clipPath>
</defs>
</svg>
