<svg width="16" height="15" viewBox="0 0 16 15" fill="none" xmlns="http://www.w3.org/2000/svg">
<g id="category">
<path id="Vector" d="M7.36572 1.25L3.92822 6.875H10.8032L7.36572 1.25ZM7.36572 3.65L8.57197 5.625H6.15322L7.36572 3.65ZM10.8032 8.125C9.24697 8.125 7.99072 9.38125 7.99072 10.9375C7.99072 12.4937 9.24697 13.75 10.8032 13.75C12.3595 13.75 13.6157 12.4937 13.6157 10.9375C13.6157 9.38125 12.3595 8.125 10.8032 8.125ZM10.8032 12.5C9.94072 12.5 9.24072 11.8 9.24072 10.9375C9.24072 10.075 9.94072 9.375 10.8032 9.375C11.6657 9.375 12.3657 10.075 12.3657 10.9375C12.3657 11.8 11.6657 12.5 10.8032 12.5ZM1.74072 13.4375H6.74072V8.4375H1.74072V13.4375ZM2.99072 9.6875H5.49072V12.1875H2.99072V9.6875Z" fill="white"/>
</g>
</svg>
