<svg width="18" height="17" viewBox="0 0 18 17" fill="none" xmlns="http://www.w3.org/2000/svg">
<g id="psychology">
<g id="Vector">
<path d="M11.8209 4.93113L11.1082 5.1978C10.9586 5.09113 10.8018 5.00446 10.6307 4.9378L10.5238 4.23113C10.5096 4.16446 10.4526 4.1178 10.3813 4.1178H9.24108C9.16982 4.1178 9.11281 4.16446 9.10568 4.23113L8.99878 4.9378C8.82775 5.00446 8.66384 5.09113 8.52131 5.1978L7.80867 4.93113C7.74453 4.91113 7.66614 4.93113 7.63764 4.99113L7.06752 5.91113C7.03189 5.97113 7.04614 6.04446 7.10315 6.08446L7.7089 6.52446C7.68752 6.60446 7.67327 6.6978 7.67327 6.78446C7.67327 6.87113 7.68039 6.9578 7.69465 7.04447L7.09603 7.48446C7.03901 7.52446 7.02476 7.5978 7.06039 7.65113L7.63051 8.5778C7.66614 8.6378 7.7374 8.6578 7.80867 8.6378L8.51419 8.37113C8.66384 8.4778 8.82062 8.56447 8.99878 8.63113L9.09855 9.3378C9.11281 9.40446 9.16982 9.45113 9.24108 9.45113H10.3813C10.4526 9.45113 10.5096 9.40446 10.5238 9.3378L10.6307 8.63113C10.8018 8.56447 10.9657 8.4778 11.1082 8.37113L11.8137 8.6378C11.8779 8.66446 11.9563 8.6378 11.9848 8.5778L12.5549 7.65113C12.5905 7.59113 12.5763 7.52446 12.5192 7.48446L11.9277 7.04447C11.942 6.9578 11.9491 6.87113 11.9491 6.78446C11.9491 6.69113 11.942 6.60446 11.9277 6.52446L12.5335 6.08446C12.5905 6.04446 12.6048 5.97113 12.5691 5.91113L11.999 4.99113C11.9634 4.93113 11.885 4.91113 11.8209 4.93113ZM9.8112 7.7378C9.24821 7.7378 8.79212 7.31113 8.79212 6.78446C8.79212 6.2578 9.24821 5.83113 9.8112 5.83113C10.3742 5.83113 10.8303 6.2578 10.8303 6.78446C10.8303 7.31113 10.3742 7.7378 9.8112 7.7378Z" fill="currentColor"/>
<path d="M14.7569 6.1578C14.4505 3.9778 12.4551 2.25113 10.1034 2.12446C10.0036 2.1178 9.91097 2.1178 9.8112 2.1178C7.29557 2.1178 5.2289 3.8578 4.8797 6.1178L3.5043 8.4378C3.21212 8.8778 3.55419 9.45113 4.11005 9.45113H4.82269V10.7845C4.82269 11.5178 5.46407 12.1178 6.24798 12.1178H6.96062V14.1178H11.9491V10.9978C13.8163 10.1645 15.0491 8.2778 14.7569 6.1578ZM11.1581 9.87113L10.5238 10.1511V12.7845H8.38591V10.7845H6.24798V8.1178H5.32154L6.26936 6.56446C6.39763 4.82446 7.92269 3.45113 9.8112 3.45113C11.7781 3.45113 13.3744 4.94446 13.3744 6.78446C13.3744 8.1778 12.4551 9.37113 11.1581 9.87113Z" fill="currentColor"/>
</g>
</g>
</svg>
