<svg xmlns="http://www.w3.org/2000/svg" version="1.0" width="16" height="16" viewBox="0 0 48.000000 48.000000" preserveAspectRatio="xMidYMid meet">

<g transform="translate(0.000000,48.000000) scale(0.100000,-0.100000)" fill="#b5b9bc" stroke="none">
<path d="M47 392 c-14 -15 -17 -42 -17 -154 0 -118 2 -137 18 -151 16 -15 45 -17 194 -17 157 0 177 2 191 18 14 15 17 42 17 154 0 118 -2 137 -18 151 -16 15 -45 17 -194 17 -157 0 -177 -2 -191 -18z m368 -152 l0 -135 -175 0 -175 0 -3 124 c-1 69 0 131 2 138 4 11 42 13 178 11 l173 -3 0 -135z"/>
<path d="M197 303 c-11 -10 -8 -121 3 -128 15 -9 115 47 115 65 0 8 -22 27 -50 42 -54 30 -58 31 -68 21z"/>
</g>
</svg>
