<svg width="15" height="16" viewBox="0 0 15 16" fill="none" xmlns="http://www.w3.org/2000/svg">
<g id="forum">
<path id="Vector" d="M9.875 3.37506V2.87506H9.375H2.5H2V3.37506V8.48131V9.68842L2.85355 8.83486L3.43836 8.25006H9.375H9.875V7.75006V3.37506ZM4.25 11.5001V10.7501H11.875H12.375V10.2501V5.12506H13.125C13.1926 5.12506 13.25 5.18245 13.25 5.25006V13.418L11.6036 11.7715L11.4571 11.6251H11.25H4.375C4.30739 11.6251 4.25 11.5677 4.25 11.5001ZM3.75 8.50006H3.54289L3.39645 8.64651L1.75 10.293V2.75006C1.75 2.68245 1.80739 2.62506 1.875 2.62506H10C10.0676 2.62506 10.125 2.68245 10.125 2.75006V8.37506C10.125 8.44267 10.0676 8.50006 10 8.50006H3.75Z" fill="white" stroke="white"/>
</g>
</svg>
