<svg width="23" height="23" viewBox="0 0 23 23" fill="none" xmlns="http://www.w3.org/2000/svg">
<g id="rate_review">
<path id="Vector" d="M18.432 2.45111H3.7653C2.75697 2.45111 1.94114 3.27611 1.94114 4.28444L1.93197 20.7844L5.59864 17.1178H18.432C19.4403 17.1178 20.2653 16.2928 20.2653 15.2844V4.28444C20.2653 3.27611 19.4403 2.45111 18.432 2.45111ZM18.432 15.2844H4.8378L3.7653 16.3569V4.28444H18.432V15.2844ZM9.72364 13.4511H16.5986V11.6178H11.557L9.72364 13.4511ZM13.262 8.07028C13.4453 7.88694 13.4453 7.60278 13.262 7.41944L11.6395 5.79694C11.4561 5.61361 11.172 5.61361 10.9886 5.79694L5.59864 11.1869V13.4511H7.8628L13.262 8.07028Z" fill="white"/>
</g>
</svg>
