<svg width="15" height="16" viewBox="0 0 15 16" fill="none" xmlns="http://www.w3.org/2000/svg">
<g id="favorite_border">
<path id="Vector" d="M7.11932 4.27111L7.5 4.71814L7.88068 4.27111C8.47013 3.5789 9.37639 3.14069 10.3125 3.14069C11.9614 3.14069 13.25 4.42933 13.25 6.07819C13.25 7.09519 12.7971 8.05705 11.8981 9.15616C10.9934 10.2623 9.68982 11.4455 8.07038 12.914L8.06966 12.9147L7.49872 13.4344L6.93001 12.9207C6.92981 12.9205 6.9296 12.9203 6.92939 12.9201C5.31013 11.4486 4.00672 10.264 3.10198 9.15707C2.20287 8.05708 1.75 7.0952 1.75 6.07819C1.75 4.42933 3.03864 3.14069 4.6875 3.14069C5.62361 3.14069 6.52987 3.5789 7.11932 4.27111ZM3.47325 9.2111C4.35927 10.2464 5.61793 11.3864 7.09271 12.7218L7.14645 12.7755L7.5 13.129L7.85355 12.7755L7.90729 12.7218C9.38206 11.3864 10.6407 10.2464 11.5268 9.2111C12.4098 8.17933 13 7.16587 13 6.07819C13 4.55204 11.8386 3.39069 10.3125 3.39069C9.27876 3.39069 8.26147 3.97829 7.76989 4.86569H7.2346C6.73913 3.97946 5.72272 3.39069 4.6875 3.39069C3.16136 3.39069 2 4.55204 2 6.07819C2 7.16587 2.59024 8.17933 3.47325 9.2111Z" fill="black" stroke="black"/>
</g>
</svg>
