<svg width="41" height="41" viewBox="0 0 41 41" fill="none" xmlns="http://www.w3.org/2000/svg">
<g id="help_outline">
<path id="Vector" d="M19.2349 30.0434H22.5682V26.71H19.2349V30.0434ZM20.9015 3.37671C11.7015 3.37671 4.23486 10.8434 4.23486 20.0434C4.23486 29.2434 11.7015 36.71 20.9015 36.71C30.1015 36.71 37.5682 29.2434 37.5682 20.0434C37.5682 10.8434 30.1015 3.37671 20.9015 3.37671ZM20.9015 33.3767C13.5515 33.3767 7.5682 27.3934 7.5682 20.0434C7.5682 12.6934 13.5515 6.71004 20.9015 6.71004C28.2515 6.71004 34.2349 12.6934 34.2349 20.0434C34.2349 27.3934 28.2515 33.3767 20.9015 33.3767ZM20.9015 10.0434C17.2182 10.0434 14.2349 13.0267 14.2349 16.71H17.5682C17.5682 14.8767 19.0682 13.3767 20.9015 13.3767C22.7349 13.3767 24.2349 14.8767 24.2349 16.71C24.2349 20.0434 19.2349 19.6267 19.2349 25.0434H22.5682C22.5682 21.2934 27.5682 20.8767 27.5682 16.71C27.5682 13.0267 24.5849 10.0434 20.9015 10.0434Z" fill="#3C3F41"/>
</g>
</svg>
